<svg width="19" height="19" viewBox="0 0 19 19" fill="none" xmlns="http://www.w3.org/2000/svg">
<path d="M13.2003 6.97371C12.8195 4.02672 10.3006 1.75 7.25 1.75C3.93629 1.75 1.25 4.43629 1.25 7.75C1.25 9.1693 1.7428 10.4735 2.56663 11.5008C3.17263 12.2565 3.50025 13.0939 3.50019 13.9796L3.5 16.75H10.25L10.2508 14.5H11.75C12.5785 14.5 13.25 13.8285 13.25 13V10.8033L14.7195 10.1738C14.9769 10.0635 14.9993 9.80253 14.8882 9.62778L13.2003 6.97371ZM2.75 7.75C2.75 5.26472 4.76472 3.25 7.25 3.25C9.51822 3.25 11.4249 4.93856 11.7126 7.16588L11.7554 7.49696L12.9123 9.31608L11.75 9.81392V13H8.75128L8.75052 15.25H5.0001L5.00019 13.9797C5.00027 12.7504 4.55724 11.5855 3.73684 10.5624C3.10114 9.76968 2.75 8.78867 2.75 7.75ZM16.3651 13.8268L15.117 12.9947C15.8327 11.9232 16.25 10.6353 16.25 9.25008C16.25 7.86475 15.8327 6.57692 15.117 5.50541L16.3651 4.67328C17.24 5.98289 17.75 7.55691 17.75 9.25008C17.75 10.9432 17.24 12.5171 16.3651 13.8268Z" fill="#00286A"/>
</svg>
