<svg width="58" height="61" viewBox="0 0 58 61" fill="none" xmlns="http://www.w3.org/2000/svg">
<path d="M6.81313 49.3255V7.14929H41.2327V42.5703L47.7906 37.2098V3.90497C47.7906 2.11352 46.3238 0.660645 44.5136 0.660645H3.53483C1.72462 0.660645 0.257812 2.11352 0.257812 3.90497V52.5686C0.257812 54.36 1.72462 55.8129 3.53483 55.8129H32.1408L27.5067 49.3255H6.81313Z" fill="#00286A"/>
<path d="M57.2297 35.5411C56.6259 34.9777 55.6978 34.9512 55.0621 35.4691L40.0263 47.7667L30.0063 41.8175C29.3412 41.4234 28.4897 41.5409 27.9599 42.1069C27.434 42.6678 27.3765 43.518 27.8246 44.1447L38.6833 59.3518C38.9872 59.7776 39.4812 60.0328 40.0072 60.0378C40.0123 60.0378 40.0174 60.0378 40.0225 60.0378C40.5433 60.0378 41.0348 59.794 41.3438 59.3745L57.4289 37.6788C57.914 37.0205 57.831 36.1046 57.2297 35.5411Z" fill="#00286A"/>
<path d="M33.8582 12.0159H14.1872C12.377 12.0159 10.9102 13.4687 10.9102 15.2602C10.9102 17.0517 12.377 18.5045 14.1872 18.5045H33.857C35.6672 18.5045 37.1327 17.0517 37.1327 15.2602C37.1327 13.4687 35.6685 12.0159 33.8582 12.0159Z" fill="#00286A"/>
<path d="M33.8582 21.7477H14.1872C12.377 21.7477 10.9102 23.2005 10.9102 24.992C10.9102 26.7834 12.377 28.2363 14.1872 28.2363H33.857C35.6672 28.2363 37.1327 26.7847 37.1327 24.992C37.1365 23.2005 35.6685 21.7477 33.8582 21.7477Z" fill="#00286A"/>
<path d="M33.8582 31.4808H14.1872C12.377 31.4808 10.9102 32.9337 10.9102 34.7251C10.9102 36.5166 12.377 37.9695 14.1872 37.9695H33.857C35.6672 37.9695 37.1327 36.5166 37.1327 34.7251C37.1365 32.9337 35.6685 31.4808 33.8582 31.4808Z" fill="#00286A"/>
</svg>
