<svg width="60" height="58" viewBox="0 0 60 58" fill="none" xmlns="http://www.w3.org/2000/svg">
<path d="M42.575 31.4244C41.8438 30.6922 40.655 30.6922 39.9238 31.4244L38.4369 32.9113L35.4631 29.9375L42.0256 23.375H44.9994C52.3597 23.375 56.2494 18.8366 56.2494 10.25C56.2494 9.60031 55.9128 8.99656 55.3597 8.65531C54.8075 8.31313 54.1166 8.28219 53.5353 8.57281L47.2447 11.7181L45.4063 9.87969L48.5516 3.58906C48.8422 3.00781 48.8113 2.31781 48.4691 1.76469C48.1278 1.21156 47.5241 0.875001 46.8744 0.875001C38.2878 0.875001 33.7494 4.76469 33.7494 12.125V15.0978L27.1869 21.6603L16.7131 11.1875L18.2 9.70063C18.6088 9.29188 18.8056 8.71906 18.7353 8.14625C18.665 7.57344 18.3341 7.06438 17.8391 6.76719L8.46409 1.14219C7.72721 0.698751 6.78221 0.815938 6.17377 1.42438L4.29877 3.29938C3.69033 3.90781 3.57408 4.85188 4.01658 5.58969L9.64158 14.9647C9.93877 15.4597 10.4469 15.7906 11.0206 15.8609C11.0966 15.8703 11.1735 15.875 11.2494 15.875C11.7435 15.875 12.2216 15.68 12.575 15.3256L14.0619 13.8388L24.5356 24.3125L2.42377 46.4244C2.21752 46.6297 2.06283 46.8809 1.97096 47.1575L0.0959595 52.7825C-0.128103 53.4566 0.0472095 54.1991 0.548772 54.7006L2.42377 56.5756C2.78096 56.9328 3.26002 57.125 3.7494 57.125C3.94721 57.125 4.14783 57.0931 4.3419 57.0284L9.9669 55.1534C10.2435 55.0616 10.4938 54.9059 10.7 54.7006L32.8119 32.5888L35.7856 35.5625L34.2988 37.0494C33.5666 37.7816 33.5666 38.9684 34.2988 39.7006L51.1738 56.5756C51.5394 56.9422 52.0194 57.125 52.4994 57.125C52.9794 57.125 53.4594 56.9422 53.825 56.5756L59.45 50.9506C60.1822 50.2184 60.1822 49.0316 59.45 48.2994L42.575 31.4244ZM11.6216 10.9756L8.27846 5.40406L13.85 8.74719L11.6216 10.9756ZM8.36096 51.7363L4.25565 53.105L4.0194 52.8688L5.38815 48.7634L36.95 17.2006C37.3016 16.8491 37.4994 16.3719 37.4994 15.875V12.125C37.4994 8.95156 38.315 5.71719 43.7281 4.85L41.4472 9.41188C41.0863 10.1338 41.2278 11.0056 41.7988 11.5766L45.5488 15.3266C46.1197 15.8975 46.9925 16.0391 47.7135 15.6781L52.2753 13.3972C51.4072 18.8094 48.1728 19.625 44.9994 19.625H41.2494C40.7525 19.625 40.2753 19.8228 39.9238 20.1744L8.36096 51.7363ZM52.4994 52.5978L38.2766 38.375L41.2494 35.4022L55.4722 49.625L52.4994 52.5978Z" fill="#00286A"/>
</svg>
