<svg width="61" height="54" viewBox="0 0 61 54" fill="none" xmlns="http://www.w3.org/2000/svg">
<path d="M60.2398 46.7714L34.8424 2.79159C34.0202 1.3677 32.5009 0.490723 30.8566 0.490723C29.2124 0.490723 27.6929 1.36752 26.8707 2.79159L1.4734 46.7714C0.650854 48.1953 0.650854 49.9502 1.47304 51.3743C2.29522 52.7983 3.81469 53.6757 5.45924 53.6757H56.2539C57.8983 53.6757 59.4179 52.7985 60.2401 51.3743C61.0621 49.9502 61.0621 48.1953 60.2398 46.7714ZM5.45924 49.073L30.8566 5.0932L56.2539 49.073H5.45924Z" fill="#00286A"/>
<path d="M27.6705 20.9386L28.9905 36.0495C29.0675 36.9391 29.7735 37.6722 30.6936 37.7527C31.7243 37.8428 32.6327 37.0802 32.7227 36.0495L34.0426 20.9386C34.0568 20.762 34.0586 20.5641 34.0426 20.382C33.889 18.6222 32.338 17.3205 30.5784 17.474C28.8188 17.6278 27.5169 19.1791 27.6705 20.9386Z" fill="#00286A"/>
<path d="M30.8566 43.9692C32.3146 43.9692 33.4965 42.7873 33.4965 41.3293C33.4965 39.8714 32.3146 38.6895 30.8566 38.6895C29.3986 38.6895 28.2167 39.8714 28.2167 41.3293C28.2167 42.7873 29.3986 43.9692 30.8566 43.9692Z" fill="#00286A"/>
</svg>
