<svg width="21" height="25" viewBox="0 0 21 25" fill="none" xmlns="http://www.w3.org/2000/svg">
<path d="M19.5488 15.9966H13.0172V9.36267C14.4931 8.54479 15.4231 6.98888 15.4231 5.27557C15.4232 2.69892 13.3268 0.602661 10.75 0.602661C8.1734 0.602661 6.07723 2.69892 6.07723 5.27557C6.07723 6.98898 7.00707 8.54479 8.48283 9.36267V15.9967H1.95121C1.28882 15.9967 0.75 16.5355 0.75 17.1979V23.1962C0.75 23.8586 1.28882 24.3974 1.95121 24.3974H19.5488C20.2112 24.3974 20.75 23.8586 20.75 23.1962V17.1979C20.75 16.5355 20.2112 15.9966 19.5488 15.9966ZM7.51869 5.27557C7.51869 3.49374 8.96831 2.04412 10.75 2.04412C12.532 2.04412 13.9817 3.49374 13.9817 5.27557C13.9817 6.57394 13.2095 7.74161 12.0142 8.25045L11.5757 8.43707V15.9966H9.92419V8.43707L9.4857 8.25045C8.29083 7.74171 7.51869 6.57403 7.51869 5.27557ZM19.3085 22.9559H2.19146V17.4381H19.3085V22.9559Z" fill="#273039" fill-opacity="0.8"/>
<path d="M5.25131 22.0466C6.25053 22.0466 7.06351 21.2337 7.06351 20.2345C7.06351 19.2352 6.25053 18.4224 5.25131 18.4224C4.252 18.4224 3.43921 19.2353 3.43921 20.2345C3.43921 21.2337 4.252 22.0466 5.25131 22.0466ZM5.25131 19.3833C5.72074 19.3833 6.10254 19.7652 6.10254 20.2345C6.10254 20.7038 5.72065 21.0856 5.25131 21.0856C4.78197 21.0856 4.40018 20.7037 4.40018 20.2345C4.40018 19.7651 4.78197 19.3833 5.25131 19.3833Z" fill="#273039" fill-opacity="0.8"/>
</svg>
