<svg width="21" height="21" viewBox="0 0 21 21" fill="none" xmlns="http://www.w3.org/2000/svg">
<g clip-path="url(#clip0_635_5252)">
<path d="M20.3944 20.5H1.10564C0.909185 20.5 0.75 20.3408 0.75 20.1444V0.855642C0.75 0.659185 0.909185 0.5 1.10564 0.5H20.3944C20.5908 0.5 20.75 0.659185 20.75 0.855642V20.1444C20.75 20.3408 20.5908 20.5 20.3944 20.5ZM15.7037 19.7887H20.0387V15.4537L16.0177 19.4748C16.0171 19.4753 16.0166 19.476 16.0158 19.4766C16.0153 19.4772 16.0146 19.4779 16.014 19.4785L15.7037 19.7887ZM10.1677 19.7887H14.698L15.2616 19.2251L12.9964 16.9599L10.1677 19.7887ZM4.99906 19.7887H9.16178L15.3445 13.606L13.2632 11.5246L6.69818 18.0896L4.99906 19.7887ZM1.46128 19.7887H3.99317L5.94379 17.8381L3.75844 15.6527L1.46128 17.9499V19.7887ZM13.4993 16.4569L15.7645 18.7221L20.0387 14.4478V9.91767L16.0989 13.8575L13.4993 16.4569ZM4.26146 15.1497L6.44667 17.3351L17.3539 6.42783L15.1686 4.24249L10.8925 8.51872C10.892 8.51901 10.8918 8.51929 10.8915 8.51957L4.26146 15.1497ZM1.46128 12.1663V16.9439L3.50323 14.9018C3.50451 14.9006 3.50565 14.8994 3.50679 14.8982C3.50793 14.8969 3.50921 14.8958 3.51035 14.8947L10.1369 8.26792L7.7981 5.92908L1.46128 12.1663ZM13.7661 11.0216L15.8474 13.1029L20.0283 8.92216C20.0317 8.91875 20.0353 8.91533 20.0387 8.91206V4.74892L13.7661 11.0216ZM1.46128 6.36211V11.1683L4.27768 8.3961L1.8643 5.98257L1.46128 6.36211ZM2.38225 5.49463L4.78468 7.89706L11.5533 1.2349H6.90473L2.38225 5.49463ZM8.30496 5.43005L10.64 7.76505L17.1939 1.21128H12.5912L8.30496 5.43005ZM15.6714 3.73961L17.8568 5.92496L20.0387 3.74302V1.21128H18.1998L15.6714 3.73961ZM1.46128 1.21128V5.38509L1.59429 5.25991C1.60183 5.2508 1.60966 5.24212 1.61819 5.23359C1.63185 5.21993 1.64636 5.20756 1.66158 5.1966L5.89229 1.21128H1.46128Z" fill="#273039" fill-opacity="0.8"/>
</g>
<defs>
<clipPath id="clip0_635_5252">
<rect width="20" height="20" fill="white" transform="translate(0.75 0.5)"/>
</clipPath>
</defs>
</svg>
