<svg width="21" height="21" viewBox="0 0 21 21" fill="none" xmlns="http://www.w3.org/2000/svg">
<g clip-path="url(#clip0_635_5258)">
<path d="M11.375 1.75H10.125V4.875H11.375V1.75Z" fill="#273039" fill-opacity="0.8"/>
<path d="M16.4953 3.87099L14.3042 6.06213L15.188 6.94593L17.3791 4.75478L16.4953 3.87099Z" fill="#273039" fill-opacity="0.8"/>
<path d="M19.5 9.875H16.375V11.125H19.5V9.875Z" fill="#273039" fill-opacity="0.8"/>
<path d="M15.188 14.0541L14.3042 14.9379L16.4953 17.129L17.3791 16.2452L15.188 14.0541Z" fill="#273039" fill-opacity="0.8"/>
<path d="M11.375 16.125H10.125V19.25H11.375V16.125Z" fill="#273039" fill-opacity="0.8"/>
<path d="M6.31224 14.0541L4.12109 16.2452L5.00489 17.129L7.19604 14.9379L6.31224 14.0541Z" fill="#273039" fill-opacity="0.8"/>
<path d="M5.125 9.875H2V11.125H5.125V9.875Z" fill="#273039" fill-opacity="0.8"/>
<path d="M5.00489 3.87097L4.12109 4.75476L6.31224 6.94591L7.19604 6.06211L5.00489 3.87097Z" fill="#273039" fill-opacity="0.8"/>
<path d="M10.75 8C11.2445 8 11.7278 8.14662 12.1389 8.42133C12.55 8.69603 12.8705 9.08648 13.0597 9.54329C13.2489 10.0001 13.2984 10.5028 13.202 10.9877C13.1055 11.4727 12.8674 11.9181 12.5178 12.2678C12.1681 12.6174 11.7227 12.8555 11.2377 12.952C10.7528 13.0484 10.2501 12.9989 9.79329 12.8097C9.33648 12.6205 8.94603 12.3 8.67133 11.8889C8.39662 11.4778 8.25 10.9945 8.25 10.5C8.25075 9.83719 8.51438 9.20174 8.98306 8.73306C9.45174 8.26438 10.0872 8.00074 10.75 8ZM10.75 6.75C10.0083 6.75 9.2833 6.96993 8.66661 7.38199C8.04993 7.79404 7.56928 8.37971 7.28545 9.06494C7.00162 9.75016 6.92736 10.5042 7.07206 11.2316C7.21675 11.959 7.5739 12.6272 8.09835 13.1517C8.6228 13.6761 9.29098 14.0333 10.0184 14.1779C10.7458 14.3226 11.4998 14.2484 12.1851 13.9645C12.8703 13.6807 13.456 13.2001 13.868 12.5834C14.2801 11.9667 14.5 11.2417 14.5 10.5C14.5 9.50544 14.1049 8.55161 13.4017 7.84835C12.6984 7.14509 11.7446 6.75 10.75 6.75Z" fill="#273039" fill-opacity="0.8"/>
</g>
<defs>
<clipPath id="clip0_635_5258">
<rect width="20" height="20" fill="white" transform="translate(0.75 0.5)"/>
</clipPath>
</defs>
</svg>
