<svg width="21" height="25" viewBox="0 0 21 25" fill="none" xmlns="http://www.w3.org/2000/svg">
<path d="M3.58628 1.25977H5.57207L5.77153 1.6587L6.57856 3.27275H3.58628V1.25977ZM7.52127 3.27275L8.3283 1.6587L8.52776 1.25977H9.62791L8.82088 2.87382L8.62142 3.27275H7.52127ZM11.3776 2.87382L10.5706 1.25977H13.2876V3.27275H11.5771L11.3776 2.87382ZM7.4694 23.7403H1.09277V6.55847H7.4694V23.7403ZM15.7811 23.7403H9.40446V6.55847H15.7811V23.7403ZM20.0928 17.2468H18.3915V16.5889C18.6295 16.7866 18.9302 16.8961 19.2421 16.8961C19.5541 16.8961 19.8548 16.7866 20.0928 16.5889V17.2468ZM19.2421 14.2338C18.9302 14.2338 18.6295 14.3433 18.3915 14.541V13.8831H20.0928V14.541C19.8548 14.3433 19.5541 14.2338 19.2421 14.2338Z" stroke="white"/>
</svg>
