<svg width="23" height="31" viewBox="0 0 23 31" fill="none" xmlns="http://www.w3.org/2000/svg">
<path d="M6.14337 23.4837L5.73677 23.7747L6.14336 23.4837C2.73026 18.7148 1.06006 14.6399 1.06006 11.3518C1.06006 5.46327 5.76463 0.687073 11.5278 0.687073C17.2908 0.687073 21.9955 5.46328 21.9956 11.3518C21.9956 14.8264 20.3209 18.9591 16.9103 23.6503C14.4159 27.0811 11.9556 29.4619 11.8615 29.5525L11.8614 29.5526C11.7681 29.6424 11.6488 29.6871 11.528 29.6871C11.4034 29.6871 11.2807 29.6397 11.1867 29.5451C11.0897 29.4474 8.63422 26.9643 6.14337 23.4837ZM5.66579 10.8098C5.66579 14.0426 8.29498 16.6718 11.5278 16.6718C14.7604 16.6718 17.3898 14.0426 17.3898 10.8098C17.3898 7.57712 14.7605 4.94786 11.5278 4.94786C8.29504 4.94786 5.66579 7.57712 5.66579 10.8098Z" stroke="#00286A"/>
</svg>
