<svg width="25" height="28" viewBox="0 0 25 28" fill="none" xmlns="http://www.w3.org/2000/svg">
<path d="M12.0269 1.16895C15.7271 1.16895 18.7267 4.16852 18.7267 7.86869C18.7267 11.5689 15.7271 14.5684 12.0269 14.5684C8.32675 14.5684 5.32718 11.5689 5.32718 7.86869C5.32718 4.16852 8.32675 1.16895 12.0269 1.16895ZM1.2273 26.6868C0.840725 26.6868 0.527344 26.3734 0.527344 25.9869V23.4681C0.527344 20.4307 2.98969 17.9684 6.02713 17.9684H18.0276C21.065 17.9684 23.5273 20.4307 23.5273 23.4681V25.9869C23.5273 26.3735 23.214 26.6868 22.8274 26.6868H22.8233H22.8187H22.8137H22.8083H22.8024H22.7961H22.7893H22.7821H22.7745H22.7664H22.7579H22.749H22.7396H22.7298H22.7196H22.709H22.6979H22.6865H22.6746H22.6623H22.6496H22.6364H22.6229H22.6089H22.5946H22.5798H22.5647H22.5491H22.5331H22.5168H22.5H22.4829H22.4653H22.4474H22.4291H22.4103H22.3913H22.3718H22.3519H22.3317H22.311H22.29H22.2687H22.2469H22.2248H22.2023H22.1794H22.1562H22.1326H22.1087H22.0843H22.0597H22.0346H22.0092H21.9835H21.9574H21.931H21.9042H21.877H21.8495H21.8217H21.7935H21.765H21.7362H21.707H21.6774H21.6476H21.6174H21.5869H21.556H21.5249H21.4934H21.4616H21.4294H21.397H21.3642H21.3311H21.2977H21.264H21.2299H21.1956H21.161H21.126H21.0908H21.0552H21.0193H20.9832H20.9467H20.91H20.873H20.8356H20.798H20.7601H20.7219H20.6835H20.6447H20.6057H20.5664H20.5268H20.4869H20.4468H20.4063H20.3657H20.3247H20.2835H20.242H20.2003H20.1583H20.116H20.0735H20.0307H19.9877H19.9444H19.9008H19.8571H19.813H19.7687H19.7242H19.6795H19.6344H19.5892H19.5437H19.498H19.4521H19.4059H19.3595H19.3128H19.266H19.2189H19.1716H19.124H19.0763H19.0283H18.9801H18.9317H18.8831H18.8343H18.7853H18.7361H18.6866H18.637H18.5871H18.5371H18.4868H18.4364H18.3858H18.3349H18.2839H18.2327H18.1813H18.1297H18.078H18.026H17.9739H17.9216H17.8691H17.8164H17.7636H17.7106H17.6574H17.6041H17.5506H17.4969H17.443H17.389H17.3349H17.2806H17.2261H17.1715H17.1167H17.0618H17.0067H16.9514H16.8961H16.8406H16.7849H16.7291H16.6732H16.6171H16.5609H16.5045H16.4481H16.3915H16.3347H16.2779H16.2209H16.1638H16.1066H16.0492H15.9918H15.9342H15.8765H15.8187H15.7608H15.7027H15.6446H15.5864H15.528H15.4696H15.411H15.3524H15.2937H15.2348H15.1759H15.1169H15.0578H14.9986H14.9393H14.88H14.8205H14.761H14.7014H14.6417H14.582H14.5221H14.4622H14.4023H14.3422H14.2821H14.2219H14.1617H14.1014H14.041H13.9806H13.9202H13.8596H13.7991H13.7384H13.6778H13.617H13.5563H13.4955H13.4346H13.3737H13.3128H13.2518H13.1908H13.1297H13.0687H13.0076H12.9464H12.8853H12.8241H12.7629H12.7017H12.6404H12.5792H12.5179H12.4566H12.3953H12.334H12.2727H12.2113H12.15H12.0887H12.0273H11.966H11.9047H11.8433H11.782H11.7207H11.6594H11.5981H11.5368H11.4755H11.4142H11.353H11.2918H11.2306H11.1694H11.1082H11.0471H10.986H10.9249H10.8639H10.8029H10.7419H10.681H10.6201H10.5592H10.4984H10.4376H10.3769H10.3162H10.2556H10.195H10.1345H10.074H10.0136H9.95326H9.89297H9.83273H9.77256H9.71245H9.65241H9.59244H9.53254H9.47271H9.41295H9.35327H9.29367H9.23414H9.1747H9.11534H9.05606H8.99687H8.93777H8.87875H8.81983H8.761H8.70226H8.64362H8.58508H8.52664H8.4683H8.41006H8.35193H8.29391H8.23599H8.17819H8.1205H8.06292H8.00546H7.94811H7.89088H7.83378H7.7768H7.71994H7.66321H7.6066H7.55013H7.49379H7.43758H7.38151H7.32557H7.26977H7.21411H7.15859H7.10322H7.04799H6.99291H6.93798H6.8832H6.82858H6.7741H6.71979H6.66563H6.61163H6.55779H6.50411H6.4506H6.39726H6.34408H6.29108H6.23824H6.18558H6.1331H6.08079H6.02866H5.97672H5.92495H5.87337H5.82197H5.77076H5.71974H5.66892H5.61828H5.56784H5.5176H5.46755H5.41771H5.36806H5.31862H5.26939H5.22036H5.17154H5.12293H5.07453H5.02635H4.97838H4.93063H4.8831H4.83579H4.7887H4.74184H4.6952H4.64879H4.60261H4.55666H4.51095H4.46547H4.42023H4.37522H4.33046H4.28593H4.24166H4.19762H4.15384H4.1103H4.06701H4.02398H3.9812H3.93868H3.89641H3.85441H3.81266H3.77118H3.72996H3.68901H3.64833H3.60792H3.56778H3.52791H3.48832H3.449H3.40997H3.37121H3.33274H3.29455H3.25665H3.21903H3.1817H3.14467H3.10793H3.07148H3.03533H2.99948H2.96392H2.92867H2.89372H2.85908H2.82474H2.79071H2.757H2.72359H2.6905H2.65772H2.62526H2.59312H2.56131H2.52981H2.49864H2.46779H2.43728H2.40709H2.37723H2.34771H2.31852H2.28967H2.26115H2.23298H2.20515H2.17766H2.15052H2.12372H2.09728H2.07118H2.04544H2.02005H1.99502H1.97034H1.94603H1.92207H1.89848H1.87525H1.85239H1.8299H1.80778H1.78603H1.76465H1.74365H1.72303H1.70278H1.68292H1.66343H1.64433H1.62562H1.60729H1.58936H1.57181H1.55466H1.5379H1.52154H1.50557H1.49001H1.47485H1.46009H1.44573H1.43179H1.41825H1.40512H1.3924H1.3801H1.36821H1.35674H1.34569H1.33506H1.32485H1.31507H1.30571H1.29678H1.28828H1.28022H1.27258H1.26538H1.25862H1.25229H1.24641H1.24096H1.23596H1.23141H1.2273Z" stroke="#00286A"/>
</svg>
