<svg width="61" height="60" viewBox="0 0 61 60" fill="none" xmlns="http://www.w3.org/2000/svg">
<g clip-path="url(#clip0_635_4896)">
<path d="M58.8616 5.93225H42.1912C41.7333 5.93225 41.2964 6.12383 40.9862 6.46046L24.5119 24.3427C23.5782 23.0744 22.076 22.2497 20.3841 22.2497H16.7286C13.9034 22.2497 11.6051 24.548 11.6051 27.3732V37.3537H2.13837C1.23355 37.3537 0.5 38.087 0.5 38.9921V52.4293C0.5 53.3343 1.23355 54.0676 2.13837 54.0676H18.8071C19.265 54.0676 19.7019 53.8761 20.0121 53.5394L48.4783 22.646H58.8619C59.7667 22.646 60.5002 21.9126 60.5002 21.0076V7.57062C60.5 6.6658 59.7665 5.93225 58.8616 5.93225ZM16.7286 25.5267H20.3841C21.2352 25.5267 21.9517 26.106 22.1647 26.8907L14.8818 34.7959V27.3732C14.8818 26.355 15.7101 25.5267 16.7286 25.5267ZM57.2233 19.3695H47.7601C47.3022 19.3695 46.8653 19.561 46.5551 19.8977L18.0888 50.7911H3.77673V40.6306H13.2434C13.7013 40.6306 14.1382 40.4391 14.4484 40.1024L42.9096 9.20898H57.2233V19.3695Z" fill="white"/>
<path d="M18.5567 19.835C22.3896 19.835 25.508 16.7167 25.508 12.8835C25.508 9.05063 22.3896 5.9325 18.5567 5.9325C14.7238 5.9325 11.6055 9.05063 11.6055 12.8835C11.6055 16.7164 14.7238 19.835 18.5567 19.835ZM18.5567 9.20901C20.5828 9.20901 22.2313 10.8574 22.2313 12.8833C22.2313 14.9094 20.5828 16.5581 18.5567 16.5581C16.5306 16.5581 14.8822 14.9094 14.8822 12.8833C14.8822 10.8574 16.5306 9.20901 18.5567 9.20901Z" fill="white"/>
</g>
<defs>
<clipPath id="clip0_635_4896">
<rect width="60" height="60" fill="white" transform="translate(0.5)"/>
</clipPath>
</defs>
</svg>
