<svg width="61" height="60" viewBox="0 0 61 60" fill="none" xmlns="http://www.w3.org/2000/svg">
<g clip-path="url(#clip0_635_4904)">
<path d="M13.4505 48.8269L16.5771 54.2385C16.7032 54.4561 16.9346 54.589 17.1844 54.589H23.4323C23.6827 54.589 23.9149 54.4561 24.0395 54.2385L27.1648 48.8269C27.29 48.6099 27.29 48.3437 27.1648 48.1261L24.0395 42.7144C23.9149 42.4974 23.6835 42.364 23.4323 42.364H17.1844C16.9346 42.364 16.7032 42.4974 16.5771 42.7144L13.4505 48.1261C13.3251 48.3437 13.3251 48.6107 13.4505 48.8269ZM17.5888 43.7673H23.0276L25.7478 48.4779L23.0276 53.1878H17.5888L14.8674 48.4779L17.5888 43.7673Z" fill="white"/>
<path d="M24.487 48.4765C24.487 46.1731 22.6122 44.2983 20.3074 44.2983C18.0027 44.2983 16.1279 46.1731 16.1279 48.4765C16.1279 50.7816 18.0029 52.658 20.3074 52.658C22.612 52.658 24.487 50.7818 24.487 48.4765ZM17.5306 48.4765C17.5306 46.9459 18.7771 45.7002 20.3082 45.7002C21.8402 45.7002 23.0859 46.9459 23.0859 48.4765C23.0859 50.0098 21.84 51.2561 20.3082 51.2561C18.7771 51.2563 17.5306 50.0098 17.5306 48.4765Z" fill="white"/>
<path d="M24.4509 33.5946C24.3283 33.2289 23.9306 33.0313 23.5638 33.1529L16.6059 35.4891C16.2396 35.6123 16.0412 36.01 16.165 36.3776C16.2636 36.6706 16.5367 36.8554 16.8297 36.8554C16.9037 36.8554 16.9789 36.843 17.0529 36.8184L24.01 34.4828C24.3771 34.359 24.5741 33.9614 24.4509 33.5946Z" fill="white"/>
<path d="M24.4509 30.7907C24.3283 30.4239 23.9306 30.2269 23.5638 30.3493L16.6059 32.6855C16.2396 32.8087 16.0412 33.2063 16.165 33.5739C16.2636 33.8668 16.5367 34.0518 16.8297 34.0518C16.9037 34.0518 16.9789 34.0394 17.0529 34.0146L24.01 31.6792C24.3771 31.5554 24.5741 31.1576 24.4509 30.7907Z" fill="white"/>
<path d="M24.4509 27.9871C24.3283 27.6205 23.9306 27.4245 23.5638 27.5455L16.6059 29.8817C16.2396 30.0049 16.0412 30.4025 16.165 30.7701C16.2636 31.0632 16.5367 31.248 16.8297 31.248C16.9037 31.248 16.9789 31.2356 17.0529 31.211L24.01 28.8752C24.3771 28.7518 24.5741 28.3538 24.4509 27.9871Z" fill="white"/>
<path d="M24.4509 24.4827C24.3283 24.116 23.9306 23.9186 23.5638 24.041L16.6059 26.3772C16.2396 26.5004 16.0412 26.8981 16.165 27.2653C16.2636 27.5583 16.5367 27.7435 16.8297 27.7435C16.9037 27.7435 16.9789 27.7315 17.0529 27.7069L24.01 25.3707C24.3771 25.2473 24.5741 24.8491 24.4509 24.4827Z" fill="white"/>
<path d="M24.4509 20.978C24.3283 20.6113 23.9306 20.4147 23.5638 20.5363L16.6059 22.8725C16.2396 22.9957 16.0412 23.3933 16.165 23.7606C16.2636 24.0536 16.5367 24.2388 16.8297 24.2388C16.9037 24.2388 16.9789 24.2268 17.0529 24.2022L24.01 21.866C24.3771 21.7426 24.5741 21.3446 24.4509 20.978Z" fill="white"/>
<path d="M22.4529 35.4797L17.5465 36.8814C17.2453 36.9678 17.0381 37.2429 17.0381 37.5557V40.0089C17.0381 40.3965 17.3523 40.7099 17.7389 40.7099H22.6453C23.0321 40.7099 23.3462 40.3965 23.3462 40.0089V36.154C23.3462 35.9342 23.2436 35.7267 23.0675 35.5933C22.8923 35.4617 22.6643 35.4207 22.4529 35.4797ZM21.9443 39.3078H18.4396V38.0839L21.9441 37.0824L21.9443 39.3078Z" fill="white"/>
<path d="M17.7389 21.9021C17.8319 21.9021 17.9272 21.8837 18.0154 21.8453L22.9217 19.7433C23.1798 19.6331 23.3462 19.3795 23.3462 19.0991V13.9577C23.3462 13.5703 23.0319 13.2568 22.6453 13.2568H17.7389C17.3521 13.2568 17.0381 13.5703 17.0381 13.9577V21.2012C17.0381 21.4367 17.1565 21.6561 17.3529 21.7865C17.4691 21.8635 17.6039 21.9021 17.7389 21.9021ZM18.4396 14.6585H21.9441V18.6372L18.4396 20.1386V14.6585Z" fill="white"/>
<path d="M14.2341 6.7155V12.3229C14.2341 12.7104 14.5484 13.0238 14.935 13.0238H25.2146C25.6012 13.0238 25.9154 12.7104 25.9154 12.3229V6.7155C25.9154 6.32787 25.6012 6.01465 25.2146 6.01465H14.935C14.5476 6.01445 14.2341 6.32847 14.2341 6.7155ZM15.6358 7.41636H24.5137V11.6219H15.6358V7.41636Z" fill="white"/>
<path d="M44.4271 27.5799C44.3047 27.2133 43.9074 27.0166 43.54 27.1383L36.5823 29.4744C36.216 29.5976 36.0174 29.9953 36.1414 30.3621C36.2398 30.6551 36.5131 30.8407 36.8059 30.8407C36.8799 30.8407 36.9551 30.8289 37.0291 30.8043L43.9862 28.4678C44.3533 28.3448 44.5503 27.9465 44.4271 27.5799Z" fill="white"/>
<path d="M44.4271 24.7762C44.3047 24.4096 43.9074 24.2122 43.54 24.3346L36.5823 26.6708C36.216 26.794 36.0174 27.1916 36.1414 27.5589C36.2398 27.8519 36.5131 28.0369 36.8059 28.0369C36.8799 28.0369 36.9551 28.0249 37.0291 28.0003L43.9862 25.6641C44.3533 25.5411 44.5503 25.1429 44.4271 24.7762Z" fill="white"/>
<path d="M44.4271 21.9725C44.3047 21.6061 43.9074 21.4101 43.54 21.5311L36.5823 23.8673C36.216 23.9905 36.0174 24.3881 36.1414 24.7553C36.2398 25.0484 36.5131 25.2336 36.8059 25.2336C36.8799 25.2336 36.9551 25.2216 37.0291 25.1968L43.9862 22.8606C44.3533 22.7376 44.5503 22.3394 44.4271 21.9725Z" fill="white"/>
<path d="M44.4271 18.4679C44.3047 18.1015 43.9074 17.9041 43.54 18.0265L36.5823 20.3627C36.216 20.4859 36.0174 20.8835 36.1414 21.2508C36.2398 21.5438 36.5131 21.729 36.8059 21.729C36.8799 21.729 36.9551 21.717 37.0291 21.6922L43.9862 19.356C44.3533 19.233 44.5503 18.8346 44.4271 18.4679Z" fill="white"/>
<path d="M44.4271 14.9635C44.3047 14.5969 43.9074 14.4001 43.54 14.5219L36.5823 16.8581C36.216 16.9813 36.0174 17.3789 36.1414 17.7461C36.2398 18.0392 36.5131 18.2244 36.8059 18.2244C36.8799 18.2244 36.9551 18.2124 37.0291 18.1876L43.9862 15.8514C44.3533 15.7284 44.5503 15.3301 44.4271 14.9635Z" fill="white"/>
<path d="M42.4287 29.4646L37.5224 30.8659C37.2211 30.9523 37.0139 31.2282 37.0139 31.541V33.9942C37.0139 34.3818 37.3279 34.6952 37.7148 34.6952H42.6211C43.008 34.6952 43.322 34.3818 43.322 33.9942V30.1393C43.322 29.9195 43.2194 29.712 43.0434 29.579C42.8682 29.4478 42.6395 29.4058 42.4287 29.4646ZM41.9203 33.2933H38.4158V32.0694L41.9203 31.0687V33.2933Z" fill="white"/>
<path d="M37.7148 15.8876C37.808 15.8876 37.903 15.8692 37.9914 15.8308L42.8978 13.7289C43.1558 13.6186 43.322 13.365 43.322 13.0848V7.94341C43.322 7.55578 43.008 7.24255 42.6211 7.24255H37.7148C37.3279 7.24255 37.0139 7.55558 37.0139 7.94341V15.1868C37.0139 15.4222 37.1323 15.6416 37.3287 15.772C37.445 15.8488 37.58 15.8876 37.7148 15.8876ZM38.4156 8.64446H41.9201V12.6226L38.4156 14.1239V8.64446Z" fill="white"/>
<path d="M45.8915 6.30828V0.700854C45.8915 0.313024 45.5774 0 45.1906 0H34.911C34.5242 0 34.21 0.313024 34.21 0.700854V6.30808C34.21 6.69551 34.5242 7.00894 34.911 7.00894H45.1906C45.5774 7.00914 45.8915 6.69571 45.8915 6.30828ZM44.49 5.60723H35.6121V1.40191H44.49V5.60723Z" fill="white"/>
<path d="M47.644 42.3231C47.644 38.1354 44.2381 34.7295 40.0504 34.7295C35.8641 34.7295 32.458 38.1354 32.458 42.3231C32.458 44.9461 33.7967 47.3227 35.9817 48.711L33.1939 53.5379C33.0687 53.7556 33.0687 54.0212 33.1939 54.2388L36.3193 59.6498C36.4445 59.8666 36.6759 60.0002 36.9263 60.0002H43.1756C43.4262 60.0002 43.6583 59.8666 43.7829 59.6498L46.9081 54.2388C47.0335 54.0212 47.0335 53.7556 46.9081 53.5379L44.1203 48.711C46.3053 47.3219 47.644 44.9461 47.644 42.3231ZM42.7706 58.5981H37.3304L34.6102 53.8882L37.2222 49.3658C37.266 49.3836 37.3104 49.3952 37.355 49.4116C37.4514 49.4492 37.5502 49.4814 37.648 49.5144C37.8054 49.5678 37.9634 49.6156 38.1236 49.658C38.2361 49.6882 38.3475 49.7156 38.4605 49.7402C38.6133 49.773 38.7665 49.7984 38.9199 49.8216C38.9575 49.8271 38.9931 49.8359 39.0301 49.8415C37.2182 50.2973 35.8713 51.9362 35.8713 53.8876C35.8713 56.1929 37.746 58.0685 40.0508 58.0685C42.3556 58.0685 44.2303 56.1929 44.2303 53.8876C44.2303 51.9362 42.8832 50.2975 41.0715 49.8415C41.1063 49.8361 41.1413 49.8272 41.1755 49.823C41.3329 49.799 41.4889 49.773 41.6459 49.7394C41.7561 49.7156 41.8649 49.6882 41.9745 49.6594C42.1387 49.6156 42.2996 49.5664 42.4612 49.5124C42.5558 49.4802 42.6502 49.4496 42.744 49.4138C42.7892 49.396 42.8356 49.3846 42.8802 49.366L45.4928 53.8884L42.7706 58.5981ZM42.8274 53.8882C42.8274 55.4215 41.5815 56.6672 40.0496 56.6672C38.5185 56.6672 37.272 55.4215 37.272 53.8882C37.272 52.3576 38.5183 51.1117 40.0496 51.1117C41.5817 51.1117 42.8274 52.3576 42.8274 53.8882ZM42.8288 47.8501C41.0799 48.7326 39.0243 48.7326 37.2728 47.8501C35.1682 46.7898 33.8595 44.6721 33.8595 42.3229C33.8595 38.9088 36.6363 36.1312 40.0498 36.1312C43.4641 36.1312 46.2417 38.9088 46.2417 42.3229C46.2423 44.6723 44.9334 46.7894 42.8288 47.8501Z" fill="white"/>
<path d="M40.0505 38.9458C38.1879 38.9458 36.6738 40.4605 36.6738 42.3231C36.6738 44.1856 38.1885 45.7005 40.0505 45.7005C41.9134 45.7005 43.4291 44.1858 43.4291 42.3231C43.4291 40.4605 41.913 38.9458 40.0505 38.9458ZM40.0505 44.2986C38.9614 44.2986 38.0757 43.4121 38.0757 42.3231C38.0757 41.2334 38.9614 40.3477 40.0505 40.3477C41.1408 40.3477 42.0272 41.2334 42.0272 42.3231C42.0272 43.4121 41.141 44.2986 40.0505 44.2986Z" fill="white"/>
</g>
<defs>
<clipPath id="clip0_635_4904">
<rect width="60" height="60" fill="white" transform="translate(0.5)"/>
</clipPath>
</defs>
</svg>
