<svg width="61" height="60" viewBox="0 0 61 60" fill="none" xmlns="http://www.w3.org/2000/svg">
<g clip-path="url(#clip0_635_4889)">
<path d="M15.0687 50.625H22.5687V36.345H26.3187V26.685C26.3187 25.1025 25.7762 23.7687 24.6912 22.6837C23.6062 21.5987 22.2737 21.0575 20.6937 21.06H16.9437C15.3612 21.06 14.0275 21.6012 12.9425 22.6837C11.86 23.7687 11.3187 25.1025 11.3187 26.685V36.345H15.0687V50.625ZM18.8187 17.595C19.9387 17.595 20.8787 17.2137 21.6387 16.4512C22.3987 15.6887 22.78 14.7475 22.7825 13.6275C22.785 12.5075 22.4037 11.5675 21.6387 10.8075C20.8737 10.0475 19.9325 9.66625 18.815 9.66375C17.6975 9.66125 16.7575 10.0425 15.995 10.8075C15.2325 11.5725 14.8512 12.5125 14.8512 13.6275C14.8512 14.75 15.2325 15.6912 15.995 16.4512C16.7575 17.2112 17.6975 17.5925 18.815 17.595M36.92 24.375H48.89L42.905 14.7825L36.92 24.375ZM42.905 45.2175L48.89 35.625H36.92L42.905 45.2175ZM6.56 60C4.8325 60 3.39125 59.4225 2.23625 58.2675C1.08125 57.1125 0.5025 55.67 0.5 53.94V6.06C0.5 4.3325 1.07875 2.89125 2.23625 1.73625C3.39375 0.581249 4.835 0.0025 6.56 0H54.4437C56.1687 0 57.61 0.578749 58.7675 1.73625C59.925 2.89375 60.5025 4.335 60.5 6.06V53.9437C60.5 55.6687 59.9225 57.11 58.7675 58.2675C57.6125 59.425 56.17 60.0025 54.44 60H6.56ZM6.56 56.25H54.4437C55.1162 56.25 55.6687 56.0337 56.1012 55.6012C56.5337 55.1687 56.75 54.6162 56.75 53.9437V6.05625C56.75 5.38375 56.5337 4.83125 56.1012 4.39875C55.6687 3.96625 55.1162 3.75 54.4437 3.75H6.55625C5.88375 3.75 5.33125 3.96625 4.89875 4.39875C4.46625 4.83125 4.25 5.385 4.25 6.06V53.9437C4.25 54.6162 4.46625 55.1687 4.89875 55.6012C5.33125 56.0337 5.885 56.25 6.56 56.25Z" fill="white"/>
</g>
<defs>
<clipPath id="clip0_635_4889">
<rect width="60" height="60" fill="white" transform="translate(0.5)"/>
</clipPath>
</defs>
</svg>
