<svg width="61" height="60" viewBox="0 0 61 60" fill="none" xmlns="http://www.w3.org/2000/svg">
<path d="M30.4995 23.3C33.4745 23.3 35.8995 20.875 35.8995 17.9C35.8995 14.925 33.4745 12.5 30.4995 12.5C27.5245 12.5 25.0996 14.925 25.0996 17.9C25.0996 20.875 27.5245 23.3 30.4995 23.3Z" stroke="white" stroke-width="3.75" stroke-linecap="round" stroke-linejoin="round"/>
<path opacity="0.4" d="M17.4742 47.5004C20.4492 47.5004 22.8742 45.0754 22.8742 42.1004C22.8742 39.1254 20.4492 36.7004 17.4742 36.7004C14.4992 36.7004 12.0742 39.1254 12.0742 42.1004C12.0742 45.0754 14.4742 47.5004 17.4742 47.5004Z" stroke="white" stroke-width="3.75" stroke-linecap="round" stroke-linejoin="round"/>
<path d="M43.524 47.5004C46.499 47.5004 48.924 45.0754 48.924 42.1004C48.924 39.1254 46.499 36.7004 43.524 36.7004C40.549 36.7004 38.124 39.1254 38.124 42.1004C38.124 45.0754 40.549 47.5004 43.524 47.5004Z" stroke="white" stroke-width="3.75" stroke-linecap="round" stroke-linejoin="round"/>
</svg>
