<svg width="51" height="57" viewBox="0 0 51 57" fill="none" xmlns="http://www.w3.org/2000/svg">
<path fill-rule="evenodd" clip-rule="evenodd" d="M25.3595 0.907227C33.6434 0.907227 40.359 7.62272 40.359 15.9067C40.359 24.1907 33.6434 30.9062 25.3595 30.9062C17.0755 30.9062 10.36 24.1907 10.36 15.9067C10.36 7.62272 17.0755 0.907227 25.3595 0.907227ZM2.86026 56.1528C1.47961 56.1528 0.360352 55.0336 0.360352 53.6529V48.4056C0.360352 41.5023 5.95661 35.906 12.8599 35.906H37.8608C44.764 35.906 50.3604 41.5023 50.3604 48.4056V53.6529C50.3604 55.0336 49.2411 56.1528 47.8604 56.1528C46.4797 56.1528 4.24092 56.1528 2.86026 56.1528Z" fill="#00286A"/>
</svg>
