<svg width="50" height="51" viewBox="0 0 50 51" fill="none" xmlns="http://www.w3.org/2000/svg">
<g clip-path="url(#clip0_706_1131)">
<path d="M21.875 22.375H12.5V25.5H21.875V22.375Z" fill="#00286A"/>
<path d="M31.25 9.875H12.5V13H31.25V9.875Z" fill="#00286A"/>
<path d="M31.25 16.125H12.5V19.25H31.25V16.125Z" fill="#00286A"/>
<path d="M21.875 38H12.5V41.125H21.875V38Z" fill="#00286A"/>
<path d="M43.5174 31.0597L40.431 34.1461L38.2705 31.9856L41.3569 28.8992C40.7396 28.5905 39.968 28.4362 39.3508 28.4362C38.1162 28.4362 37.0359 28.8992 36.11 29.8251C34.7211 31.214 34.4125 33.3745 35.1841 35.072L27.3137 42.9424L29.4742 45.1029L37.3446 37.2325C39.0421 38.0041 41.2026 37.6955 42.5915 36.3066C43.5174 35.3807 43.9804 34.1461 43.9804 33.0658C43.9804 32.2942 43.8261 31.677 43.5174 31.0597Z" fill="#00286A"/>
<path d="M21.875 47.375H9.375C8.54647 47.3741 7.75211 47.0446 7.16625 46.4587C6.58039 45.8729 6.25087 45.0785 6.25 44.25V6.75C6.25087 5.92147 6.58039 5.12711 7.16625 4.54125C7.75211 3.95539 8.54647 3.62587 9.375 3.625H34.375C35.2035 3.62587 35.9979 3.95539 36.5837 4.54125C37.1696 5.12711 37.4991 5.92147 37.5 6.75V22.375H34.375V6.75H9.375V44.25H21.875V47.375Z" fill="#00286A"/>
</g>
<defs>
<clipPath id="clip0_706_1131">
<rect width="50" height="50" fill="white" transform="translate(0 0.5)"/>
</clipPath>
</defs>
</svg>
