<svg width="50" height="51" viewBox="0 0 50 51" fill="none" xmlns="http://www.w3.org/2000/svg">
<path d="M47.6501 16.3185L25.7751 3.81853C25.539 3.68363 25.2718 3.61267 24.9999 3.61267C24.728 3.61267 24.4608 3.68363 24.2247 3.81853L2.34972 16.3185C2.1073 16.457 1.9064 16.6578 1.76789 16.9002C1.62939 17.1425 1.55835 17.4176 1.56216 17.6967C1.56597 17.9758 1.64448 18.2489 1.78955 18.4874C1.93461 18.7259 2.14092 18.9211 2.38702 19.0529L24.262 30.7717C24.489 30.8932 24.7424 30.9569 24.9999 30.9569C25.2574 30.9569 25.5109 30.8932 25.7378 30.7717L47.6128 19.0529C47.8589 18.9211 48.0652 18.7259 48.2103 18.4874C48.3553 18.2489 48.4339 17.9758 48.4377 17.6967C48.4415 17.4176 48.3704 17.1425 48.2319 16.9002C48.0934 16.6578 47.8925 16.457 47.6501 16.3185ZM24.9999 27.6214L6.35138 17.631L24.9999 6.97478L43.6484 17.631L24.9999 27.6214Z" fill="#00286A"/>
<path d="M25.753 38.9662L46.875 27.3491V23.7825L25 35.8138L3.125 23.7825V27.3491L24.247 38.9662C24.4777 39.093 24.7367 39.1596 25 39.1596C25.2633 39.1596 25.5223 39.093 25.753 38.9662Z" fill="#00286A"/>
<path d="M3.125 35.9044L24.2647 47.1789C24.491 47.2996 24.7435 47.3627 25 47.3627C25.2565 47.3627 25.509 47.2996 25.7353 47.1789L46.875 35.9044V32.3627L25 44.0294L3.125 32.3627V35.9044Z" fill="#00286A"/>
</svg>
