<svg width="50" height="51" viewBox="0 0 50 51" fill="none" xmlns="http://www.w3.org/2000/svg">
<g clip-path="url(#clip0_706_1142)">
<path d="M21.875 22.8627H12.5V25.9877H21.875V22.8627Z" fill="#00286A"/>
<path d="M31.25 10.3627H12.5V13.4877H31.25V10.3627Z" fill="#00286A"/>
<path d="M31.25 16.6127H12.5V19.7377H31.25V16.6127Z" fill="#00286A"/>
<path d="M21.875 38.4877H12.5V41.6127H21.875V38.4877Z" fill="#00286A"/>
<path d="M46.875 38.4877V35.3627H43.592C43.3906 34.3846 43.0023 33.4547 42.4484 32.6238L44.7766 30.2956L42.5672 28.0863L40.2391 30.4144C39.4081 29.8605 38.4781 29.4721 37.5 29.2706V25.9877H34.375V29.2706C33.397 29.4721 32.467 29.8604 31.6361 30.4142L29.308 28.0861L27.0986 30.2955L29.4267 32.6236C28.8728 33.4546 28.4845 34.3846 28.283 35.3627H25V38.4877H28.283C28.4844 39.4657 28.8727 40.3957 29.4266 41.2266L27.0984 43.5547L29.3078 45.7641L31.6359 43.436C32.4669 43.9898 33.3969 44.3782 34.375 44.5797V47.8627H37.5V44.5797C38.478 44.3782 39.408 43.9899 40.2389 43.4361L42.567 45.7642L44.7764 43.5549L42.4483 41.2267C43.0022 40.3958 43.3905 39.4658 43.592 38.4877H46.875ZM35.9375 41.6127C35.0104 41.6127 34.1041 41.3378 33.3333 40.8227C32.5624 40.3076 31.9616 39.5755 31.6068 38.719C31.252 37.8625 31.1592 36.92 31.3401 36.0107C31.5209 35.1014 31.9674 34.2662 32.6229 33.6106C33.2785 32.955 34.1137 32.5086 35.023 32.3277C35.9323 32.1469 36.8748 32.2397 37.7313 32.5945C38.5879 32.9493 39.3199 33.5501 39.835 34.3209C40.3501 35.0918 40.625 35.9981 40.625 36.9252C40.6236 38.168 40.1293 39.3594 39.2506 40.2382C38.3718 41.117 37.1803 41.6113 35.9375 41.6127Z" fill="#00286A"/>
<path d="M21.875 47.8627H9.375C8.54647 47.8618 7.75211 47.5323 7.16625 46.9464C6.58039 46.3606 6.25087 45.5662 6.25 44.7377V7.23767C6.25087 6.40914 6.58039 5.61478 7.16625 5.02892C7.75211 4.44306 8.54647 4.11354 9.375 4.11267H34.375C35.2035 4.11354 35.9979 4.44306 36.5837 5.02892C37.1696 5.61478 37.4991 6.40914 37.5 7.23767V22.8627H34.375V7.23767H9.375V44.7377H21.875V47.8627Z" fill="#00286A"/>
</g>
<defs>
<clipPath id="clip0_706_1142">
<rect width="50" height="50" fill="white" transform="translate(0 0.987671)"/>
</clipPath>
</defs>
</svg>
