<svg width="29" height="28" viewBox="0 0 29 28" fill="none" xmlns="http://www.w3.org/2000/svg">
<path d="M8.70638 16.3333C9.99504 16.3333 11.0397 15.2886 11.0397 14C11.0397 12.7113 9.99504 11.6666 8.70638 11.6666C7.41772 11.6666 6.37305 12.7113 6.37305 14C6.37305 15.2886 7.41772 16.3333 8.70638 16.3333Z" stroke="white" stroke-width="1.16667" stroke-linejoin="round"/>
<path d="M20.3729 9.33329C21.6615 9.33329 22.7062 8.28862 22.7062 6.99996C22.7062 5.71129 21.6615 4.66663 20.3729 4.66663C19.0842 4.66663 18.0396 5.71129 18.0396 6.99996C18.0396 8.28862 19.0842 9.33329 20.3729 9.33329Z" stroke="white" stroke-width="1.16667" stroke-linejoin="round"/>
<path d="M18.0394 8.16663L10.4561 12.8333" stroke="white" stroke-width="1.16667"/>
<path d="M20.3729 23.3333C21.6615 23.3333 22.7062 22.2886 22.7062 21C22.7062 19.7113 21.6615 18.6666 20.3729 18.6666C19.0842 18.6666 18.0396 19.7113 18.0396 21C18.0396 22.2886 19.0842 23.3333 20.3729 23.3333Z" stroke="white" stroke-width="1.16667" stroke-linejoin="round"/>
<path d="M10.4561 15.75L18.0394 19.8333" stroke="white" stroke-width="1.16667"/>
</svg>
