<svg width="11" height="8" viewBox="0 0 11 8" fill="none" xmlns="http://www.w3.org/2000/svg">
<path fill-rule="evenodd" clip-rule="evenodd" d="M10.2037 0.280375C10.3442 0.421 10.4231 0.611625 10.4231 0.810375C10.4231 1.00913 10.3442 1.19975 10.2037 1.34037L4.10674 7.43738C4.03636 7.50769 3.95268 7.5633 3.8606 7.60097C3.76851 7.63863 3.66985 7.6576 3.57036 7.65676C3.47087 7.65592 3.37254 7.6353 3.2811 7.59609C3.18966 7.55688 3.10694 7.49987 3.03774 7.42837L0.634744 4.94438C0.565633 4.87372 0.511168 4.7901 0.474481 4.69833C0.437794 4.60655 0.419608 4.50843 0.42097 4.40961C0.422331 4.31078 0.443212 4.2132 0.482412 4.12247C0.521613 4.03174 0.57836 3.94965 0.649391 3.88093C0.720422 3.8122 0.804336 3.75819 0.896309 3.72201C0.988283 3.68582 1.0865 3.66817 1.18532 3.67007C1.28414 3.67197 1.3816 3.69339 1.47212 3.73308C1.56263 3.77278 1.64441 3.82997 1.71274 3.90138L3.58574 5.83738L9.14374 0.280375C9.28437 0.139925 9.47499 0.0610352 9.67374 0.0610352C9.87249 0.0610352 10.0631 0.139925 10.2037 0.280375Z" fill="#00286A"/>
</svg>
