<svg width="25" height="24" viewBox="0 0 25 24" fill="none" xmlns="http://www.w3.org/2000/svg">
<path d="M3.66104 4.46898C4.82111 3.30871 6.37704 2.63007 8.01664 2.56923C9.65624 2.5084 11.2582 3.06987 12.501 4.14098C13.7428 3.07165 15.3426 2.51081 16.9803 2.57074C18.6179 2.63067 20.1724 3.30695 21.3327 4.46419C22.493 5.62142 23.1733 7.17421 23.2375 8.81167C23.3018 10.4491 22.7451 12.0504 21.679 13.295L13.914 21.085C13.5573 21.4419 13.0788 21.6507 12.5746 21.6696C12.0703 21.6885 11.5775 21.5161 11.195 21.187L11.085 21.086L3.32104 13.295C2.25553 12.0515 1.69862 10.4517 1.76166 8.81536C1.82469 7.17904 2.50303 5.6268 3.66104 4.46898ZM5.07504 5.88298C4.25728 6.70097 3.7859 7.80242 3.75871 8.95875C3.73152 10.1151 4.15063 11.2375 4.92904 12.093L5.07504 12.247L12.5 19.672L17.803 14.367L14.268 10.833L13.208 11.893C12.6455 12.4558 11.8825 12.772 11.0868 12.7722C10.291 12.7724 9.52783 12.4565 8.96504 11.894C8.40225 11.3315 8.08598 10.5684 8.08579 9.77269C8.0856 8.97697 8.40152 8.21377 8.96404 7.65098L11.066 5.54798C10.2295 4.88036 9.18245 4.53267 8.11273 4.56731C7.043 4.60195 6.02063 5.01664 5.22904 5.73698L5.07504 5.88298ZM13.561 8.71098C13.7486 8.52351 14.0029 8.4182 14.268 8.4182C14.5332 8.4182 14.7875 8.52351 14.975 8.71098L19.217 12.953L19.925 12.247C20.7565 11.4161 21.2299 10.2929 21.2439 9.11754C21.2579 7.94219 20.8115 6.808 20.0001 5.95754C19.1887 5.10707 18.0767 4.60785 16.902 4.56663C15.7273 4.52542 14.5831 4.94548 13.714 5.73698L13.561 5.88298L10.379 9.06498C10.2057 9.2382 10.102 9.46902 10.0876 9.71365C10.0733 9.95827 10.1492 10.1997 10.301 10.392L10.379 10.479C10.5523 10.6523 10.7831 10.756 11.0277 10.7704C11.2723 10.7848 11.5137 10.7088 11.706 10.557L11.793 10.479L13.561 8.71098Z" fill="white"/>
</svg>
